<mxfile host="app.diagrams.net" agent="Mozilla/5.0 (Windows NT 10.0; Win64; x64) AppleWebKit/537.36 (KHTML, like Gecko) Chrome/138.0.0.0 Safari/537.36" version="25.0.3">
  <diagram name="Page-1" id="Vgq6DoF_xsGZhW9i_Rp4">
    <mxGraphModel dx="578" dy="876" grid="1" gridSize="10" guides="1" tooltips="1" connect="1" arrows="1" fold="1" page="1" pageScale="1" pageWidth="850" pageHeight="1100" math="0" shadow="0">
      <root>
        <mxCell id="0" />
        <mxCell id="1" parent="0" />
        <mxCell id="4I1Q0lzE4hm3A643x5Ht-7" style="edgeStyle=orthogonalEdgeStyle;rounded=0;orthogonalLoop=1;jettySize=auto;html=1;exitX=0.5;exitY=1;exitDx=0;exitDy=0;entryX=0.5;entryY=0;entryDx=0;entryDy=0;" edge="1" parent="1" source="4I1Q0lzE4hm3A643x5Ht-1" target="4I1Q0lzE4hm3A643x5Ht-2">
          <mxGeometry relative="1" as="geometry" />
        </mxCell>
        <mxCell id="4I1Q0lzE4hm3A643x5Ht-1" value="Data&lt;div&gt;Ingestion&lt;/div&gt;" style="rounded=1;whiteSpace=wrap;html=1;" vertex="1" parent="1">
          <mxGeometry x="190" y="140" width="120" height="60" as="geometry" />
        </mxCell>
        <mxCell id="4I1Q0lzE4hm3A643x5Ht-8" style="edgeStyle=orthogonalEdgeStyle;rounded=0;orthogonalLoop=1;jettySize=auto;html=1;exitX=0.5;exitY=1;exitDx=0;exitDy=0;entryX=0.5;entryY=0;entryDx=0;entryDy=0;" edge="1" parent="1" source="4I1Q0lzE4hm3A643x5Ht-2" target="4I1Q0lzE4hm3A643x5Ht-3">
          <mxGeometry relative="1" as="geometry" />
        </mxCell>
        <mxCell id="4I1Q0lzE4hm3A643x5Ht-2" value="Pre-processing" style="rounded=1;whiteSpace=wrap;html=1;" vertex="1" parent="1">
          <mxGeometry x="190" y="240" width="120" height="60" as="geometry" />
        </mxCell>
        <mxCell id="4I1Q0lzE4hm3A643x5Ht-9" style="edgeStyle=orthogonalEdgeStyle;rounded=0;orthogonalLoop=1;jettySize=auto;html=1;exitX=0.5;exitY=1;exitDx=0;exitDy=0;entryX=0.5;entryY=0;entryDx=0;entryDy=0;" edge="1" parent="1" source="4I1Q0lzE4hm3A643x5Ht-3" target="4I1Q0lzE4hm3A643x5Ht-4">
          <mxGeometry relative="1" as="geometry" />
        </mxCell>
        <mxCell id="4I1Q0lzE4hm3A643x5Ht-3" value="Feature&lt;div&gt;Engineering&lt;/div&gt;" style="rounded=1;whiteSpace=wrap;html=1;" vertex="1" parent="1">
          <mxGeometry x="190" y="340" width="120" height="60" as="geometry" />
        </mxCell>
        <mxCell id="4I1Q0lzE4hm3A643x5Ht-10" style="edgeStyle=orthogonalEdgeStyle;rounded=0;orthogonalLoop=1;jettySize=auto;html=1;exitX=0.5;exitY=1;exitDx=0;exitDy=0;" edge="1" parent="1" source="4I1Q0lzE4hm3A643x5Ht-4" target="4I1Q0lzE4hm3A643x5Ht-5">
          <mxGeometry relative="1" as="geometry" />
        </mxCell>
        <mxCell id="4I1Q0lzE4hm3A643x5Ht-4" value="Model&lt;div&gt;Training&lt;/div&gt;" style="rounded=1;whiteSpace=wrap;html=1;" vertex="1" parent="1">
          <mxGeometry x="190" y="440" width="120" height="60" as="geometry" />
        </mxCell>
        <mxCell id="4I1Q0lzE4hm3A643x5Ht-11" style="edgeStyle=orthogonalEdgeStyle;rounded=0;orthogonalLoop=1;jettySize=auto;html=1;exitX=0.5;exitY=1;exitDx=0;exitDy=0;" edge="1" parent="1" source="4I1Q0lzE4hm3A643x5Ht-5" target="4I1Q0lzE4hm3A643x5Ht-6">
          <mxGeometry relative="1" as="geometry" />
        </mxCell>
        <mxCell id="4I1Q0lzE4hm3A643x5Ht-5" value="Evaluation" style="rounded=1;whiteSpace=wrap;html=1;" vertex="1" parent="1">
          <mxGeometry x="190" y="540" width="120" height="60" as="geometry" />
        </mxCell>
        <mxCell id="4I1Q0lzE4hm3A643x5Ht-6" value="Results" style="rounded=1;whiteSpace=wrap;html=1;" vertex="1" parent="1">
          <mxGeometry x="190" y="640" width="120" height="60" as="geometry" />
        </mxCell>
      </root>
    </mxGraphModel>
  </diagram>
</mxfile>
